{
    "asset": {
        "version": "2.0",
        "generator": "Open Asset Import Library (assimp v5.0.5eb040c7)"
    },
    "accessors": [
        {
            "bufferView": 0,
            "byteOffset": 0,
            "componentType": 5126,
            "count": 152884,
            "type": "VEC3",
            "max": [
                0.037990596145391467,
                0.06754273921251297,
                0.058638330549001697
            ],
            "min": [
                -0.03798608481884003,
                -0.03985719382762909,
                -0.02375144511461258
            ]
        },
        {
            "bufferView": 1,
            "byteOffset": 0,
            "componentType": 5126,
            "count": 152884,
            "type": "VEC3",
            "max": [
                1.0,
                1.0,
                1.0
            ],
            "min": [
                -1.0,
                -1.0,
                -1.0
            ]
        },
        {
            "bufferView": 2,
            "byteOffset": 0,
            "componentType": 5125,
            "count": 917304,
            "type": "SCALAR",
            "max": [
                152883
            ],
            "min": [
                0
            ]
        }
    ],
    "buffers": [
        {
            "byteLength": 7338432,
            "uri": "result.bin"
        }
    ],
    "bufferViews": [
        {
            "buffer": 0,
            "byteOffset": 0,
            "byteLength": 1834608,
            "target": 34962
        },
        {
            "buffer": 0,
            "byteOffset": 1834608,
            "byteLength": 1834608,
            "target": 34962
        },
        {
            "buffer": 0,
            "byteOffset": 3669216,
            "byteLength": 3669216,
            "target": 34963
        }
    ],
    "materials": [
        {
            "name": "DefaultMaterial",
            "pbrMetallicRoughness": {
                "baseColorFactor": [
                    0.800000011920929,
                    0.800000011920929,
                    0.800000011920929,
                    1.0
                ],
                "metallicFactor": 0.0
            }
        }
    ],
    "meshes": [
        {
            "name": "Cylinder.000",
            "primitives": [
                {
                    "mode": 4,
                    "material": 0,
                    "indices": 2,
                    "attributes": {
                        "POSITION": 0,
                        "NORMAL": 1
                    }
                }
            ]
        }
    ],
    "nodes": [
        {
            "name": "RootNode",
            "children": [
                1
            ]
        },
        {
            "name": "CUP",
            "matrix": [
                100.0,
                0.0,
                0.0,
                0.0,
                0.0,
                -0.000016292067812173629,
                -100.0,
                0.0,
                0.0,
                100.0,
                -0.000016292067812173629,
                0.0,
                -0.17586055397987367,
                0.000010992776878993027,
                6.232100702163734e-8,
                1.0
            ],
            "mesh": 0
        }
    ],
    "scenes": [
        {
            "nodes": [
                0
            ]
        }
    ],
    "scene": 0
}